# xmcd
#
# Track frame offsets:
#	150
#	8357
#	30198
#	38020
#	63945
#	74999
#	96926
#	110795
#	127272
#	144849
#	161222
#	173652
#
# Disc length: 2513 seconds
#
# Revision: 1
# Processed by: cddbd v1.5.2PL0 Copyright (c) Steve Scherf et al.
# Submitted via: audiograbber 1.83.01
#
DISCID=a009cf0c
DTITLE=Сергiй Василюк - Сховане обличчя
DYEAR=2010
DGENRE=National
TTITLE0=У цьому полі, синьому, як льон
TTITLE1=Вишневий садок
TTITLE2=Твоє місто
TTITLE3=Дівчина з Павлодару
TTITLE4=Добрий ангел
TTITLE5=До приходу ночі
TTITLE6=У небі вільного вітру
TTITLE7=Човни
TTITLE8=Іншої не було
TTITLE9=Зачинені брами
TTITLE10=До самих небес
TTITLE11=Сховане обличчя
EXTD=
EXTT0=
EXTT1=
EXTT2=
EXTT3=
EXTT4=
EXTT5=
EXTT6=
EXTT7=
EXTT8=
EXTT9=
EXTT10=
EXTT11=
PLAYORDER=
